{"title":"La_Califfa.DvdRip-JAMESD.avi","uid":11207821,"size":1373966336,"categoryP":"video","categoryS":"movies","magnet":"?xt=urn:btih:6402f6cc8127bfcccbcce65a4af91dea764a2621&amp;dn=La_Califfa.DvdRip-JAMESD.avi&amp;tr=udp%3A%2F%2Ftracker.openbittorrent.com%3A80&amp;tr=udp%3A%2F%2Fopen.demonii.com%3A1337&amp;tr=udp%3A%2F%2Ftracker.coppersurfer.tk%3A6969&amp;tr=udp%3A%2F%2Fexodus.desync.com%3A6969","seeders":1,"leechers":0,"uploader":"rpessoa","files":1,"time":1413242215,"description":"Here the director adapts his own novel about Mira (Romy Schneider), a firebrand of a woman, who moves from being a ferocious labor organizer to being the mistress of her town's factory owner (Ugo Tognazzi). Labor negotiations provide a background for their brief but devastating romantic affair\n &lt;a href=&quot;\nhttp://www.imdb.com/title/tt0065516/&quot; rel=&quot;nofollow&quot; target=&quot;_NEW&quot;&gt;\nhttp://www.imdb.com/title/tt0065516/&lt;/a&gt;\n\nGeneral\nComplete name                            : La_Califfa.DvdRip-JAMESD.avi\nFormat                                   : AVI\nFormat/Info                              : Audio Video Interleave\nFile size                                : 1.28 GiB\nDuration                                 : 1h 32mn\nOverall bit rate                         : 1 988 Kbps\nWriting application                      : VirtualDubMod 1.5.4.1 (build 2178/release)\nWriting library                          : VirtualDubMod build 2178/release\n\nVideo\nID                                       : 0\nFormat                                   : MPEG-4 Visual\nFormat profile                           : Advanced Simple@L5\nFormat settings, BVOP                    : 1\nFormat settings, QPel                    : No\nFormat settings, GMC                     : No warppoints\nFormat settings, Matrix                  : Custom\nCodec ID                                 : XVID\nCodec ID/Hint                            : XviD\nDuration                                 : 1h 32mn\nBit rate                                 : 1 789 Kbps\nWidth                                    : 720 pixels\nHeight                                   : 400 pixels\nDisplay aspect ratio                     : 16:9\nFrame rate                               : 25.000 fps\nColor space                              : YUV\nChroma subsampling                       : 4:2:0\nBit depth                                : 8 bits\nScan type                                : Progressive\nCompression mode                         : Lossy\nBits/(Pixel*Frame)                       : 0.249\nStream size                              : 1.15 GiB (90%)\nWriting library                          : XviD 1.1.2 (UTC 2006-11-01)\n\nAudio\nID                                       : 1\nFormat                                   : AC-3\nFormat/Info                              : Audio Coding 3\nMode extension                           : CM (complete main)\nCodec ID                                 : 2000\nDuration                                 : 1h 32mn\nBit rate mode                            : Constant\nBit rate                                 : 192 Kbps\nChannel(s)                               : 2 channels\nChannel positions                        : Front: L R\nSampling rate                            : 48.0 KHz\nBit depth                                : 16 bits\nCompression mode                         : Lossy\nStream size                              : 127 MiB (10%)\nAlignment                                : Split accross interleaves\nInterleave, duration                     : 96 ms (2.40 video frames)\nInterleave, preload duration             : 96 ms\nLanguage                                 : Italian","torrent":{"xt":"urn:btih:6402f6cc8127bfcccbcce65a4af91dea764a2621","amp;dn":"La_Califfa.DvdRip-JAMESD.avi","amp;tr":["udp%3A%2F%2Ftracker.openbittorrent.com%3A80","udp%3A%2F%2Fopen.demonii.com%3A1337","udp%3A%2F%2Ftracker.coppersurfer.tk%3A6969","udp%3A%2F%2Fexodus.desync.com%3A6969"],"infoHash":"6402f6cc8127bfcccbcce65a4af91dea764a2621","infoHashBuffer":{"type":"Buffer","data":[100,2,246,204,129,39,191,204,203,204,230,90,74,249,29,234,118,74,38,33]},"announce":[],"urlList":[]}}